<?xml version="1.0" encoding="UTF-8" standalone="no"?>
<!-- Created with Inkscape (http://www.inkscape.org/) -->

<svg
   xmlns:dc="http://purl.org/dc/elements/1.1/"
   xmlns:cc="http://creativecommons.org/ns#"
   xmlns:rdf="http://www.w3.org/1999/02/22-rdf-syntax-ns#"
   xmlns:svg="http://www.w3.org/2000/svg"
   xmlns="http://www.w3.org/2000/svg"
   xmlns:sodipodi="http://sodipodi.sourceforge.net/DTD/sodipodi-0.dtd"
   xmlns:inkscape="http://www.inkscape.org/namespaces/inkscape"
   width="130mm"
   height="130mm"
   viewBox="0 0 130 130"
   version="1.1"
   id="svg2761"
   inkscape:version="0.92.4 5da689c313, 2019-01-14"
   sodipodi:docname="logo_square.svg">
  <defs
     id="defs2755">
    <clipPath
       clipPathUnits="userSpaceOnUse"
       id="clipPath1634">
      <path
         d="M -3.80957,3.80957 H 3.80957 V -3.81055 H -3.80957 Z"
         id="path1632"
         inkscape:connector-curvature="0" />
    </clipPath>
    <clipPath
       clipPathUnits="userSpaceOnUse"
       id="clipPath1788">
      <path
         d="M -3.80957,3.80957 H 3.80957 V -3.81055 H -3.80957 Z"
         id="path1786"
         inkscape:connector-curvature="0" />
    </clipPath>
    <clipPath
       clipPathUnits="userSpaceOnUse"
       id="clipPath1802">
      <path
         d="M -3.80957,3.80957 H 3.80957 V -3.81055 H -3.80957 Z"
         id="path1800"
         inkscape:connector-curvature="0" />
    </clipPath>
    <clipPath
       clipPathUnits="userSpaceOnUse"
       id="clipPath1690">
      <path
         d="M -3.80957,3.80957 H 3.80957 V -3.81055 H -3.80957 Z"
         id="path1688"
         inkscape:connector-curvature="0" />
    </clipPath>
    <clipPath
       clipPathUnits="userSpaceOnUse"
       id="clipPath1662">
      <path
         d="M -3.80957,3.80957 H 3.80957 V -3.81055 H -3.80957 Z"
         id="path1660"
         inkscape:connector-curvature="0" />
    </clipPath>
    <clipPath
       clipPathUnits="userSpaceOnUse"
       id="clipPath1816">
      <path
         d="M -3.80957,3.80957 H 3.80957 V -3.81055 H -3.80957 Z"
         id="path1814"
         inkscape:connector-curvature="0" />
    </clipPath>
    <clipPath
       clipPathUnits="userSpaceOnUse"
       id="clipPath1774">
      <path
         d="M -3.80957,3.80957 H 3.80957 V -3.81055 H -3.80957 Z"
         id="path1772"
         inkscape:connector-curvature="0" />
    </clipPath>
    <clipPath
       clipPathUnits="userSpaceOnUse"
       id="clipPath1900">
      <path
         d="M -3.80957,3.80957 H 3.80957 V -3.81055 H -3.80957 Z"
         id="path1898"
         inkscape:connector-curvature="0" />
    </clipPath>
    <clipPath
       clipPathUnits="userSpaceOnUse"
       id="clipPath1760">
      <path
         d="M -3.80957,3.80957 H 3.80957 V -3.81055 H -3.80957 Z"
         id="path1758"
         inkscape:connector-curvature="0" />
    </clipPath>
    <clipPath
       clipPathUnits="userSpaceOnUse"
       id="clipPath1746">
      <path
         d="M -3.80957,3.80957 H 3.80957 V -3.81055 H -3.80957 Z"
         id="path1744"
         inkscape:connector-curvature="0" />
    </clipPath>
    <clipPath
       clipPathUnits="userSpaceOnUse"
       id="clipPath1830">
      <path
         d="M -3.80957,3.80957 H 3.80957 V -3.81055 H -3.80957 Z"
         id="path1828"
         inkscape:connector-curvature="0" />
    </clipPath>
    <clipPath
       clipPathUnits="userSpaceOnUse"
       id="clipPath1858">
      <path
         d="M -3.80957,3.80957 H 3.80957 V -3.81055 H -3.80957 Z"
         id="path1856"
         inkscape:connector-curvature="0" />
    </clipPath>
    <clipPath
       clipPathUnits="userSpaceOnUse"
       id="clipPath1844">
      <path
         d="M -3.80957,3.80957 H 3.80957 V -3.81055 H -3.80957 Z"
         id="path1842"
         inkscape:connector-curvature="0" />
    </clipPath>
    <clipPath
       clipPathUnits="userSpaceOnUse"
       id="clipPath1732">
      <path
         d="M -3.80957,3.80957 H 3.80957 V -3.81055 H -3.80957 Z"
         id="path1730"
         inkscape:connector-curvature="0" />
    </clipPath>
    <clipPath
       clipPathUnits="userSpaceOnUse"
       id="clipPath1718">
      <path
         d="M -3.80957,3.80957 H 3.80957 V -3.81055 H -3.80957 Z"
         id="path1716"
         inkscape:connector-curvature="0" />
    </clipPath>
    <clipPath
       clipPathUnits="userSpaceOnUse"
       id="clipPath1676">
      <path
         d="M -3.80957,3.80957 H 3.80957 V -3.81055 H -3.80957 Z"
         id="path1674"
         inkscape:connector-curvature="0" />
    </clipPath>
    <clipPath
       clipPathUnits="userSpaceOnUse"
       id="clipPath1942">
      <path
         d="M -3.80957,3.80957 H 3.80957 V -3.81055 H -3.80957 Z"
         id="path1940"
         inkscape:connector-curvature="0" />
    </clipPath>
  </defs>
  <sodipodi:namedview
     id="base"
     pagecolor="#ffffff"
     bordercolor="#666666"
     borderopacity="1.0"
     inkscape:pageopacity="0.0"
     inkscape:pageshadow="2"
     inkscape:zoom="0.98994949"
     inkscape:cx="329.3202"
     inkscape:cy="178.74086"
     inkscape:document-units="mm"
     inkscape:current-layer="layer1"
     showgrid="false"
     showguides="true"
     inkscape:guide-bbox="true"
     inkscape:snap-global="false"
     inkscape:snap-bbox="true"
     inkscape:bbox-paths="true"
     inkscape:bbox-nodes="true"
     inkscape:snap-bbox-midpoints="true"
     inkscape:snap-bbox-edge-midpoints="true"
     inkscape:window-width="1920"
     inkscape:window-height="1040"
     inkscape:window-x="0"
     inkscape:window-y="20"
     inkscape:window-maximized="1"
     fit-margin-top="0"
     fit-margin-left="0"
     fit-margin-right="0"
     fit-margin-bottom="0">
    <sodipodi:guide
       position="1.0785706,23.795912"
       orientation="1,0"
       id="guide3525"
       inkscape:locked="false" />
    <sodipodi:guide
       position="72.516069,66.837941"
       orientation="1,0"
       id="guide3527"
       inkscape:locked="false" />
    <sodipodi:guide
       position="32.450589,87.862871"
       orientation="0,1"
       id="guide3529"
       inkscape:locked="false" />
    <sodipodi:guide
       position="48.703569,63.861391"
       orientation="0,1"
       id="guide3531"
       inkscape:locked="false" />
  </sodipodi:namedview>
  <metadata
     id="metadata2758">
    <rdf:RDF>
      <cc:Work
         rdf:about="">
        <dc:format>image/svg+xml</dc:format>
        <dc:type
           rdf:resource="http://purl.org/dc/dcmitype/StillImage" />
        <dc:title></dc:title>
      </cc:Work>
    </rdf:RDF>
  </metadata>
  <g
     inkscape:label="Layer 1"
     inkscape:groupmode="layer"
     id="layer1"
     transform="translate(-142.55237,5.3737315)">
    <g
       id="g8268"
       transform="translate(-1.5118411,-1.3906639)">
      <g
         inkscape:label="Layer 1"
         id="layer1-3"
         transform="matrix(2.2276726,0.08683761,-0.08683761,2.2276726,-49.157708,-421.69105)">
        <path
           style="fill:none;stroke:#ffc2db;stroke-width:1.32291663;stroke-linecap:butt;stroke-linejoin:bevel;stroke-miterlimit:4;stroke-dasharray:none;stroke-opacity:1"
           d="m 98.456863,209.07814 14.350557,3.01471 -0.62128,4.41083 0.62128,-4.41083 6.28225,-3.23121 2.40648,9.28268 -1.46945,5.9106 11.72511,-4.94414 -6.25367,-3.6552 0.85328,11.12254 -4.85527,-8.4338 10.25566,0.96646 5.08924,9.51453 8.03326,2.3975 -13.1225,-11.91203"
           id="path17321"
           inkscape:connector-curvature="0" />
        <g
           id="g1630"
           clip-path="url(#clipPath1634)"
           transform="matrix(0.35277777,0,0,0.35277777,144.87428,231.02299)"
           style="fill:#a30044;fill-opacity:1">
          <g
             id="g1636"
             transform="translate(3.8096,-0.001)"
             style="fill:#a30044;fill-opacity:1">
            <path
               d="m 0,0 c 0,2.104 -1.706,3.811 -3.81,3.811 -2.103,0 -3.809,-1.707 -3.809,-3.811 0,-2.104 1.707,-3.81 3.809,-3.81 C -1.706,-3.81 0,-2.103 0,0"
               style="fill:#a30044;fill-opacity:1;fill-rule:nonzero;stroke:none"
               id="path1638"
               inkscape:connector-curvature="0" />
          </g>
        </g>
        <path
           style="fill:none;stroke:#fd006a;stroke-width:1.32291663;stroke-linecap:round;stroke-linejoin:round;stroke-miterlimit:4;stroke-dasharray:none;stroke-opacity:1"
           d="m 98.456863,209.07814 10.782787,-1.32965 9.85002,1.11315 6.40847,6.59394 7.95329,-2.16105 -1.69962,5.81625 9.51893,1.27676 9.5064,16.97638 -13.93609,-8.73861 -4.68303,-1.31343 -5.8066,-0.73376 -4.11943,2.04763 -2.20529,-4.57083 -7.84056,-7.55124 z"
           id="path17319"
           inkscape:connector-curvature="0"
           sodipodi:nodetypes="ccccccccccccccc" />
        <g
           id="g1784"
           clip-path="url(#clipPath1788)"
           transform="matrix(0.35277777,0,0,0.35277777,132.15799,227.31206)"
           style="fill:#a30044;fill-opacity:1">
          <g
             id="g1790"
             transform="translate(3.8096,-0.001)"
             style="fill:#a30044;fill-opacity:1">
            <path
               d="m 0,0 c 0,2.104 -1.706,3.811 -3.81,3.811 -2.103,0 -3.809,-1.707 -3.809,-3.811 0,-2.104 1.707,-3.81 3.809,-3.81 C -1.706,-3.81 0,-2.103 0,0"
               style="fill:#a30044;fill-opacity:1;fill-rule:nonzero;stroke:none"
               id="path1792"
               inkscape:connector-curvature="0" />
          </g>
        </g>
        <g
           id="g1798"
           clip-path="url(#clipPath1802)"
           transform="matrix(0.35277777,0,0,0.35277777,121.49612,218.1445)"
           style="fill:#a30044;fill-opacity:1">
          <g
             id="g1804"
             transform="translate(3.8096,-0.001)"
             style="fill:#a30044;fill-opacity:1">
            <path
               d="m 0,0 c 0,2.104 -1.706,3.811 -3.81,3.811 -2.103,0 -3.809,-1.707 -3.809,-3.811 0,-2.104 1.707,-3.81 3.809,-3.81 C -1.706,-3.81 0,-2.103 0,0"
               style="fill:#a30044;fill-opacity:1;fill-rule:nonzero;stroke:none"
               id="path1806"
               inkscape:connector-curvature="0" />
          </g>
        </g>
        <g
           id="g1686"
           clip-path="url(#clipPath1690)"
           transform="matrix(0.35277777,0,0,0.35277777,112.80739,212.09303)"
           style="fill:#a30044;fill-opacity:1">
          <g
             id="g1692"
             transform="translate(3.8096,-0.001)"
             style="fill:#a30044;fill-opacity:1">
            <path
               d="m 0,0 c 0,2.104 -1.706,3.811 -3.81,3.811 -2.103,0 -3.809,-1.707 -3.809,-3.811 0,-2.104 1.707,-3.81 3.809,-3.81 C -1.706,-3.81 0,-2.103 0,0"
               style="fill:#a30044;fill-opacity:1;fill-rule:nonzero;stroke:none"
               id="path1694"
               inkscape:connector-curvature="0" />
          </g>
        </g>
        <g
           id="g1658"
           clip-path="url(#clipPath1662)"
           transform="matrix(0.35277777,0,0,0.35277777,112.18611,216.50386)"
           style="fill:#a30044;fill-opacity:1">
          <g
             id="g1664"
             transform="translate(3.8096,-0.001)"
             style="fill:#a30044;fill-opacity:1">
            <path
               d="m 0,0 c 0,2.104 -1.706,3.811 -3.81,3.811 -2.103,0 -3.809,-1.707 -3.809,-3.811 0,-2.104 1.707,-3.81 3.809,-3.81 C -1.706,-3.81 0,-2.103 0,0"
               style="fill:#a30044;fill-opacity:1;fill-rule:nonzero;stroke:none"
               id="path1666"
               inkscape:connector-curvature="0" />
          </g>
        </g>
        <g
           id="g1812"
           clip-path="url(#clipPath1816)"
           transform="matrix(0.35277777,0,0,0.35277777,120.02667,224.0551)"
           style="fill:#a30044;fill-opacity:1">
          <g
             id="g1818"
             transform="translate(3.8096,-0.001)"
             style="fill:#a30044;fill-opacity:1">
            <path
               d="m 0,0 c 0,2.104 -1.706,3.811 -3.81,3.811 -2.103,0 -3.809,-1.707 -3.809,-3.811 0,-2.104 1.707,-3.81 3.809,-3.81 C -1.706,-3.81 0,-2.103 0,0"
               style="fill:#a30044;fill-opacity:1;fill-rule:nonzero;stroke:none"
               id="path1820"
               inkscape:connector-curvature="0" />
          </g>
        </g>
        <g
           id="g1770"
           clip-path="url(#clipPath1774)"
           transform="matrix(0.35277777,0,0,0.35277777,122.23196,228.43694)"
           style="fill:#a30044;fill-opacity:1">
          <g
             id="g1776"
             transform="translate(3.8096,-0.001)"
             style="fill:#a30044;fill-opacity:1">
            <path
               d="m 0,0 c 0,2.104 -1.706,3.811 -3.81,3.811 -2.103,0 -3.809,-1.707 -3.809,-3.811 0,-2.104 1.707,-3.81 3.809,-3.81 C -1.706,-3.81 0,-2.103 0,0"
               style="fill:#a30044;fill-opacity:1;fill-rule:nonzero;stroke:none"
               id="path1778"
               inkscape:connector-curvature="0" />
          </g>
        </g>
        <g
           id="g1896"
           clip-path="url(#clipPath1900)"
           transform="matrix(0.35277777,0,0,0.35277777,126.35139,226.5783)"
           style="fill:#a30044;fill-opacity:1">
          <g
             id="g1902"
             transform="translate(3.8096,-0.001)"
             style="fill:#a30044;fill-opacity:1">
            <path
               d="m 0,0 c 0,2.104 -1.706,3.811 -3.81,3.811 -2.103,0 -3.809,-1.707 -3.809,-3.811 0,-2.104 1.707,-3.81 3.809,-3.81 C -1.706,-3.81 0,-2.103 0,0"
               style="fill:#a30044;fill-opacity:1;fill-rule:nonzero;stroke:none"
               id="path1904"
               inkscape:connector-curvature="0" />
          </g>
        </g>
        <g
           id="g1756"
           clip-path="url(#clipPath1760)"
           transform="matrix(0.35277777,0,0,0.35277777,136.84102,228.62549)"
           style="fill:#a30044;fill-opacity:1">
          <g
             id="g1762"
             transform="translate(3.8096,-0.001)"
             style="fill:#a30044;fill-opacity:1">
            <path
               d="m 0,0 c 0,2.104 -1.706,3.811 -3.81,3.811 -2.103,0 -3.809,-1.707 -3.809,-3.811 0,-2.104 1.707,-3.81 3.809,-3.81 C -1.706,-3.81 0,-2.103 0,0"
               style="fill:#a30044;fill-opacity:1;fill-rule:nonzero;stroke:none"
               id="path1764"
               inkscape:connector-curvature="0" />
          </g>
        </g>
        <g
           id="g1742"
           clip-path="url(#clipPath1746)"
           transform="matrix(0.35277777,0,0,0.35277777,150.77711,237.3641)"
           style="fill:#a30044;fill-opacity:1">
          <g
             id="g1748"
             transform="translate(3.8096,-0.001)"
             style="fill:#a30044;fill-opacity:1">
            <path
               d="m 0,0 c 0,2.104 -1.706,3.811 -3.81,3.811 -2.103,0 -3.809,-1.707 -3.809,-3.811 0,-2.104 1.707,-3.81 3.809,-3.81 C -1.706,-3.81 0,-2.103 0,0"
               style="fill:#a30044;fill-opacity:1;fill-rule:nonzero;stroke:none"
               id="path1750"
               inkscape:connector-curvature="0" />
          </g>
        </g>
        <g
           id="g1826"
           clip-path="url(#clipPath1830)"
           transform="matrix(0.35277777,0,0,0.35277777,141.27071,220.38772)"
           style="fill:#a30044;fill-opacity:1">
          <g
             id="g1832"
             transform="translate(3.8096,-0.001)"
             style="fill:#a30044;fill-opacity:1">
            <path
               d="m 0,0 c 0,2.104 -1.706,3.811 -3.81,3.811 -2.103,0 -3.809,-1.707 -3.809,-3.811 0,-2.104 1.707,-3.81 3.809,-3.81 C -1.706,-3.81 0,-2.103 0,0"
               style="fill:#a30044;fill-opacity:1;fill-rule:nonzero;stroke:none"
               id="path1834"
               inkscape:connector-curvature="0" />
          </g>
        </g>
        <g
           id="g1854"
           clip-path="url(#clipPath1858)"
           transform="matrix(0.35277777,0,0,0.35277777,131.75178,219.11096)"
           style="fill:#a30044;fill-opacity:1">
          <g
             id="g1860"
             transform="translate(3.8096,-0.001)"
             style="fill:#a30044;fill-opacity:1">
            <path
               d="m 0,0 c 0,2.104 -1.706,3.811 -3.81,3.811 -2.103,0 -3.809,-1.707 -3.809,-3.811 0,-2.104 1.707,-3.81 3.809,-3.81 C -1.706,-3.81 0,-2.103 0,0"
               style="fill:#a30044;fill-opacity:1;fill-rule:nonzero;stroke:none"
               id="path1862"
               inkscape:connector-curvature="0" />
          </g>
        </g>
        <g
           id="g1840"
           clip-path="url(#clipPath1844)"
           transform="matrix(0.35277777,0,0,0.35277777,133.30965,213.34196)"
           style="fill:#a30044;fill-opacity:1">
          <g
             id="g1846"
             transform="translate(3.8096,-0.001)"
             style="fill:#a30044;fill-opacity:1">
            <path
               d="m 0,0 c 0,2.104 -1.706,3.811 -3.81,3.811 -2.103,0 -3.809,-1.707 -3.809,-3.811 0,-2.104 1.707,-3.81 3.809,-3.81 C -1.706,-3.81 0,-2.103 0,0"
               style="fill:#a30044;fill-opacity:1;fill-rule:nonzero;stroke:none"
               id="path1848"
               inkscape:connector-curvature="0" />
          </g>
        </g>
        <g
           id="g1728"
           clip-path="url(#clipPath1732)"
           transform="matrix(0.35277777,0,0,0.35277777,125.49811,215.45576)"
           style="fill:#a30044;fill-opacity:1">
          <g
             id="g1734"
             transform="translate(3.8096,-0.001)"
             style="fill:#a30044;fill-opacity:1">
            <path
               d="m 0,0 c 0,2.104 -1.706,3.811 -3.81,3.811 -2.103,0 -3.809,-1.707 -3.809,-3.811 0,-2.104 1.707,-3.81 3.809,-3.81 C -1.706,-3.81 0,-2.103 0,0"
               style="fill:#a30044;fill-opacity:1;fill-rule:nonzero;stroke:none"
               id="path1736"
               inkscape:connector-curvature="0" />
          </g>
        </g>
        <g
           id="g1714"
           clip-path="url(#clipPath1718)"
           transform="matrix(0.35277777,0,0,0.35277777,119.08964,208.86182)"
           style="fill:#a30044;fill-opacity:1">
          <g
             id="g1720"
             transform="translate(3.8096,-0.001)"
             style="fill:#a30044;fill-opacity:1">
            <path
               d="m 0,0 c 0,2.104 -1.706,3.811 -3.81,3.811 -2.103,0 -3.809,-1.707 -3.809,-3.811 0,-2.104 1.707,-3.81 3.809,-3.81 C -1.706,-3.81 0,-2.103 0,0"
               style="fill:#a30044;fill-opacity:1;fill-rule:nonzero;stroke:none"
               id="path1722"
               inkscape:connector-curvature="0" />
          </g>
        </g>
        <g
           id="g1672"
           clip-path="url(#clipPath1676)"
           transform="matrix(0.35277777,0,0,0.35277777,109.23962,207.74867)"
           style="fill:#a30044;fill-opacity:1">
          <g
             id="g1678"
             transform="translate(3.8096,-0.001)"
             style="fill:#a30044;fill-opacity:1">
            <path
               d="m 0,0 c 0,2.104 -1.706,3.811 -3.81,3.811 -2.103,0 -3.809,-1.707 -3.809,-3.811 0,-2.104 1.707,-3.81 3.809,-3.81 C -1.706,-3.81 0,-2.103 0,0"
               style="fill:#a30044;fill-opacity:1;fill-rule:nonzero;stroke:none"
               id="path1680"
               inkscape:connector-curvature="0" />
          </g>
        </g>
        <g
           id="g1938"
           clip-path="url(#clipPath1942)"
           transform="matrix(0.35277777,0,0,0.35277777,98.456828,209.07832)"
           style="fill:#a30044;fill-opacity:1">
          <g
             id="g1944"
             transform="translate(3.8096,-0.001)"
             style="fill:#a30044;fill-opacity:1">
            <path
               d="m 0,0 c 0,2.104 -1.706,3.811 -3.81,3.811 -2.103,0 -3.809,-1.707 -3.809,-3.811 0,-2.104 1.707,-3.81 3.809,-3.81 C -1.706,-3.81 0,-2.103 0,0"
               style="fill:#a30044;fill-opacity:1;fill-rule:nonzero;stroke:none"
               id="path1946"
               inkscape:connector-curvature="0" />
          </g>
        </g>
      </g>
      <text
         id="text5897"
         y="31.404224"
         x="156.67195"
         style="font-style:normal;font-weight:normal;font-size:46.41714096px;line-height:1.25;font-family:sans-serif;letter-spacing:0px;word-spacing:0px;fill:#a30044;fill-opacity:1;stroke:none;stroke-width:1.16042817"
         xml:space="preserve"><tspan
           style="font-style:normal;font-variant:normal;font-weight:bold;font-stretch:normal;font-family:Montserrat;-inkscape-font-specification:Montserrat;fill:#a30044;fill-opacity:1;stroke-width:1.16042817"
           y="31.404224"
           x="156.67195"
           id="tspan5895"
           sodipodi:role="line">RUB </tspan></text>
    </g>
  </g>
</svg>
