<?xml version="1.0" encoding="UTF-8" standalone="no"?>
<!-- Created with Inkscape (http://www.inkscape.org/) -->

<svg
   xmlns:dc="http://purl.org/dc/elements/1.1/"
   xmlns:cc="http://creativecommons.org/ns#"
   xmlns:rdf="http://www.w3.org/1999/02/22-rdf-syntax-ns#"
   xmlns:svg="http://www.w3.org/2000/svg"
   xmlns="http://www.w3.org/2000/svg"
   xmlns:sodipodi="http://sodipodi.sourceforge.net/DTD/sodipodi-0.dtd"
   xmlns:inkscape="http://www.inkscape.org/namespaces/inkscape"
   width="136.33507mm"
   height="87.273643mm"
   viewBox="0 0 136.33507 87.273644"
   version="1.1"
   id="svg2761"
   inkscape:version="0.92.2 2405546, 2018-03-11"
   sodipodi:docname="logo_with_name.svg">
  <defs
     id="defs2755">
    <clipPath
       clipPathUnits="userSpaceOnUse"
       id="clipPath1634">
      <path
         d="M -3.80957,3.80957 H 3.80957 V -3.81055 H -3.80957 Z"
         id="path1632"
         inkscape:connector-curvature="0" />
    </clipPath>
    <clipPath
       clipPathUnits="userSpaceOnUse"
       id="clipPath1788">
      <path
         d="M -3.80957,3.80957 H 3.80957 V -3.81055 H -3.80957 Z"
         id="path1786"
         inkscape:connector-curvature="0" />
    </clipPath>
    <clipPath
       clipPathUnits="userSpaceOnUse"
       id="clipPath1802">
      <path
         d="M -3.80957,3.80957 H 3.80957 V -3.81055 H -3.80957 Z"
         id="path1800"
         inkscape:connector-curvature="0" />
    </clipPath>
    <clipPath
       clipPathUnits="userSpaceOnUse"
       id="clipPath1690">
      <path
         d="M -3.80957,3.80957 H 3.80957 V -3.81055 H -3.80957 Z"
         id="path1688"
         inkscape:connector-curvature="0" />
    </clipPath>
    <clipPath
       clipPathUnits="userSpaceOnUse"
       id="clipPath1662">
      <path
         d="M -3.80957,3.80957 H 3.80957 V -3.81055 H -3.80957 Z"
         id="path1660"
         inkscape:connector-curvature="0" />
    </clipPath>
    <clipPath
       clipPathUnits="userSpaceOnUse"
       id="clipPath1816">
      <path
         d="M -3.80957,3.80957 H 3.80957 V -3.81055 H -3.80957 Z"
         id="path1814"
         inkscape:connector-curvature="0" />
    </clipPath>
    <clipPath
       clipPathUnits="userSpaceOnUse"
       id="clipPath1774">
      <path
         d="M -3.80957,3.80957 H 3.80957 V -3.81055 H -3.80957 Z"
         id="path1772"
         inkscape:connector-curvature="0" />
    </clipPath>
    <clipPath
       clipPathUnits="userSpaceOnUse"
       id="clipPath1900">
      <path
         d="M -3.80957,3.80957 H 3.80957 V -3.81055 H -3.80957 Z"
         id="path1898"
         inkscape:connector-curvature="0" />
    </clipPath>
    <clipPath
       clipPathUnits="userSpaceOnUse"
       id="clipPath1760">
      <path
         d="M -3.80957,3.80957 H 3.80957 V -3.81055 H -3.80957 Z"
         id="path1758"
         inkscape:connector-curvature="0" />
    </clipPath>
    <clipPath
       clipPathUnits="userSpaceOnUse"
       id="clipPath1746">
      <path
         d="M -3.80957,3.80957 H 3.80957 V -3.81055 H -3.80957 Z"
         id="path1744"
         inkscape:connector-curvature="0" />
    </clipPath>
    <clipPath
       clipPathUnits="userSpaceOnUse"
       id="clipPath1830">
      <path
         d="M -3.80957,3.80957 H 3.80957 V -3.81055 H -3.80957 Z"
         id="path1828"
         inkscape:connector-curvature="0" />
    </clipPath>
    <clipPath
       clipPathUnits="userSpaceOnUse"
       id="clipPath1858">
      <path
         d="M -3.80957,3.80957 H 3.80957 V -3.81055 H -3.80957 Z"
         id="path1856"
         inkscape:connector-curvature="0" />
    </clipPath>
    <clipPath
       clipPathUnits="userSpaceOnUse"
       id="clipPath1844">
      <path
         d="M -3.80957,3.80957 H 3.80957 V -3.81055 H -3.80957 Z"
         id="path1842"
         inkscape:connector-curvature="0" />
    </clipPath>
    <clipPath
       clipPathUnits="userSpaceOnUse"
       id="clipPath1732">
      <path
         d="M -3.80957,3.80957 H 3.80957 V -3.81055 H -3.80957 Z"
         id="path1730"
         inkscape:connector-curvature="0" />
    </clipPath>
    <clipPath
       clipPathUnits="userSpaceOnUse"
       id="clipPath1718">
      <path
         d="M -3.80957,3.80957 H 3.80957 V -3.81055 H -3.80957 Z"
         id="path1716"
         inkscape:connector-curvature="0" />
    </clipPath>
    <clipPath
       clipPathUnits="userSpaceOnUse"
       id="clipPath1676">
      <path
         d="M -3.80957,3.80957 H 3.80957 V -3.81055 H -3.80957 Z"
         id="path1674"
         inkscape:connector-curvature="0" />
    </clipPath>
    <clipPath
       clipPathUnits="userSpaceOnUse"
       id="clipPath1942">
      <path
         d="M -3.80957,3.80957 H 3.80957 V -3.81055 H -3.80957 Z"
         id="path1940"
         inkscape:connector-curvature="0" />
    </clipPath>
  </defs>
  <sodipodi:namedview
     id="base"
     pagecolor="#ffffff"
     bordercolor="#666666"
     borderopacity="1.0"
     inkscape:pageopacity="0.0"
     inkscape:pageshadow="2"
     inkscape:zoom="1.4"
     inkscape:cx="382.8167"
     inkscape:cy="245.41225"
     inkscape:document-units="mm"
     inkscape:current-layer="layer1"
     showgrid="false"
     showguides="true"
     inkscape:guide-bbox="true"
     inkscape:snap-global="false"
     inkscape:snap-bbox="true"
     inkscape:bbox-paths="true"
     inkscape:bbox-nodes="true"
     inkscape:snap-bbox-midpoints="true"
     inkscape:snap-bbox-edge-midpoints="true"
     inkscape:window-width="1920"
     inkscape:window-height="1040"
     inkscape:window-x="1920"
     inkscape:window-y="20"
     inkscape:window-maximized="1"
     fit-margin-top="0"
     fit-margin-left="0"
     fit-margin-right="0"
     fit-margin-bottom="0">
    <sodipodi:guide
       position="1.0785706,23.795912"
       orientation="1,0"
       id="guide3525"
       inkscape:locked="false" />
    <sodipodi:guide
       position="72.516069,66.837941"
       orientation="1,0"
       id="guide3527"
       inkscape:locked="false" />
    <sodipodi:guide
       position="32.450589,87.862871"
       orientation="0,1"
       id="guide3529"
       inkscape:locked="false" />
    <sodipodi:guide
       position="48.703569,63.861391"
       orientation="0,1"
       id="guide3531"
       inkscape:locked="false" />
  </sodipodi:namedview>
  <metadata
     id="metadata2758">
    <rdf:RDF>
      <cc:Work
         rdf:about="">
        <dc:format>image/svg+xml</dc:format>
        <dc:type
           rdf:resource="http://purl.org/dc/dcmitype/StillImage" />
        <dc:title></dc:title>
      </cc:Work>
    </rdf:RDF>
  </metadata>
  <g
     inkscape:label="Layer 1"
     inkscape:groupmode="layer"
     id="layer1"
     transform="translate(-142.55237,-37.352625)">
    <g
       transform="matrix(1.6407055,0.06395686,-0.06395686,1.6407055,20.536605,-276.66849)"
       id="layer1-3"
       inkscape:label="Layer 1">
      <path
         inkscape:connector-curvature="0"
         id="path17321"
         d="m 98.456863,209.07814 14.350557,3.01471 -0.62128,4.41083 0.62128,-4.41083 6.28225,-3.23121 2.40648,9.28268 -1.46945,5.9106 11.72511,-4.94414 -6.25367,-3.6552 0.85328,11.12254 -4.85527,-8.4338 10.25566,0.96646 5.08924,9.51453 8.03326,2.3975 -13.1225,-11.91203"
         style="fill:none;stroke:#ffc2db;stroke-width:1.32291663;stroke-linecap:butt;stroke-linejoin:bevel;stroke-miterlimit:4;stroke-dasharray:none;stroke-opacity:1" />
      <g
         style="fill:#a30044;fill-opacity:1"
         transform="matrix(0.35277777,0,0,0.35277777,144.87428,231.02299)"
         clip-path="url(#clipPath1634)"
         id="g1630">
        <g
           style="fill:#a30044;fill-opacity:1"
           transform="translate(3.8096,-0.001)"
           id="g1636">
          <path
             inkscape:connector-curvature="0"
             id="path1638"
             style="fill:#a30044;fill-opacity:1;fill-rule:nonzero;stroke:none"
             d="m 0,0 c 0,2.104 -1.706,3.811 -3.81,3.811 -2.103,0 -3.809,-1.707 -3.809,-3.811 0,-2.104 1.707,-3.81 3.809,-3.81 C -1.706,-3.81 0,-2.103 0,0" />
        </g>
      </g>
      <path
         sodipodi:nodetypes="ccccccccccccccc"
         inkscape:connector-curvature="0"
         id="path17319"
         d="m 98.456863,209.07814 10.782787,-1.32965 9.85002,1.11315 6.40847,6.59394 7.95329,-2.16105 -1.69962,5.81625 9.51893,1.27676 9.5064,16.97638 -13.93609,-8.73861 -4.68303,-1.31343 -5.8066,-0.73376 -4.11943,2.04763 -2.20529,-4.57083 -7.84056,-7.55124 z"
         style="fill:none;stroke:#fd006a;stroke-width:1.32291663;stroke-linecap:round;stroke-linejoin:round;stroke-miterlimit:4;stroke-dasharray:none;stroke-opacity:1" />
      <g
         style="fill:#a30044;fill-opacity:1"
         transform="matrix(0.35277777,0,0,0.35277777,132.15799,227.31206)"
         clip-path="url(#clipPath1788)"
         id="g1784">
        <g
           style="fill:#a30044;fill-opacity:1"
           transform="translate(3.8096,-0.001)"
           id="g1790">
          <path
             inkscape:connector-curvature="0"
             id="path1792"
             style="fill:#a30044;fill-opacity:1;fill-rule:nonzero;stroke:none"
             d="m 0,0 c 0,2.104 -1.706,3.811 -3.81,3.811 -2.103,0 -3.809,-1.707 -3.809,-3.811 0,-2.104 1.707,-3.81 3.809,-3.81 C -1.706,-3.81 0,-2.103 0,0" />
        </g>
      </g>
      <g
         style="fill:#a30044;fill-opacity:1"
         transform="matrix(0.35277777,0,0,0.35277777,121.49612,218.1445)"
         clip-path="url(#clipPath1802)"
         id="g1798">
        <g
           style="fill:#a30044;fill-opacity:1"
           transform="translate(3.8096,-0.001)"
           id="g1804">
          <path
             inkscape:connector-curvature="0"
             id="path1806"
             style="fill:#a30044;fill-opacity:1;fill-rule:nonzero;stroke:none"
             d="m 0,0 c 0,2.104 -1.706,3.811 -3.81,3.811 -2.103,0 -3.809,-1.707 -3.809,-3.811 0,-2.104 1.707,-3.81 3.809,-3.81 C -1.706,-3.81 0,-2.103 0,0" />
        </g>
      </g>
      <g
         style="fill:#a30044;fill-opacity:1"
         transform="matrix(0.35277777,0,0,0.35277777,112.80739,212.09303)"
         clip-path="url(#clipPath1690)"
         id="g1686">
        <g
           style="fill:#a30044;fill-opacity:1"
           transform="translate(3.8096,-0.001)"
           id="g1692">
          <path
             inkscape:connector-curvature="0"
             id="path1694"
             style="fill:#a30044;fill-opacity:1;fill-rule:nonzero;stroke:none"
             d="m 0,0 c 0,2.104 -1.706,3.811 -3.81,3.811 -2.103,0 -3.809,-1.707 -3.809,-3.811 0,-2.104 1.707,-3.81 3.809,-3.81 C -1.706,-3.81 0,-2.103 0,0" />
        </g>
      </g>
      <g
         style="fill:#a30044;fill-opacity:1"
         transform="matrix(0.35277777,0,0,0.35277777,112.18611,216.50386)"
         clip-path="url(#clipPath1662)"
         id="g1658">
        <g
           style="fill:#a30044;fill-opacity:1"
           transform="translate(3.8096,-0.001)"
           id="g1664">
          <path
             inkscape:connector-curvature="0"
             id="path1666"
             style="fill:#a30044;fill-opacity:1;fill-rule:nonzero;stroke:none"
             d="m 0,0 c 0,2.104 -1.706,3.811 -3.81,3.811 -2.103,0 -3.809,-1.707 -3.809,-3.811 0,-2.104 1.707,-3.81 3.809,-3.81 C -1.706,-3.81 0,-2.103 0,0" />
        </g>
      </g>
      <g
         style="fill:#a30044;fill-opacity:1"
         transform="matrix(0.35277777,0,0,0.35277777,120.02667,224.0551)"
         clip-path="url(#clipPath1816)"
         id="g1812">
        <g
           style="fill:#a30044;fill-opacity:1"
           transform="translate(3.8096,-0.001)"
           id="g1818">
          <path
             inkscape:connector-curvature="0"
             id="path1820"
             style="fill:#a30044;fill-opacity:1;fill-rule:nonzero;stroke:none"
             d="m 0,0 c 0,2.104 -1.706,3.811 -3.81,3.811 -2.103,0 -3.809,-1.707 -3.809,-3.811 0,-2.104 1.707,-3.81 3.809,-3.81 C -1.706,-3.81 0,-2.103 0,0" />
        </g>
      </g>
      <g
         style="fill:#a30044;fill-opacity:1"
         transform="matrix(0.35277777,0,0,0.35277777,122.23196,228.43694)"
         clip-path="url(#clipPath1774)"
         id="g1770">
        <g
           style="fill:#a30044;fill-opacity:1"
           transform="translate(3.8096,-0.001)"
           id="g1776">
          <path
             inkscape:connector-curvature="0"
             id="path1778"
             style="fill:#a30044;fill-opacity:1;fill-rule:nonzero;stroke:none"
             d="m 0,0 c 0,2.104 -1.706,3.811 -3.81,3.811 -2.103,0 -3.809,-1.707 -3.809,-3.811 0,-2.104 1.707,-3.81 3.809,-3.81 C -1.706,-3.81 0,-2.103 0,0" />
        </g>
      </g>
      <g
         style="fill:#a30044;fill-opacity:1"
         transform="matrix(0.35277777,0,0,0.35277777,126.35139,226.5783)"
         clip-path="url(#clipPath1900)"
         id="g1896">
        <g
           style="fill:#a30044;fill-opacity:1"
           transform="translate(3.8096,-0.001)"
           id="g1902">
          <path
             inkscape:connector-curvature="0"
             id="path1904"
             style="fill:#a30044;fill-opacity:1;fill-rule:nonzero;stroke:none"
             d="m 0,0 c 0,2.104 -1.706,3.811 -3.81,3.811 -2.103,0 -3.809,-1.707 -3.809,-3.811 0,-2.104 1.707,-3.81 3.809,-3.81 C -1.706,-3.81 0,-2.103 0,0" />
        </g>
      </g>
      <g
         style="fill:#a30044;fill-opacity:1"
         transform="matrix(0.35277777,0,0,0.35277777,136.84102,228.62549)"
         clip-path="url(#clipPath1760)"
         id="g1756">
        <g
           style="fill:#a30044;fill-opacity:1"
           transform="translate(3.8096,-0.001)"
           id="g1762">
          <path
             inkscape:connector-curvature="0"
             id="path1764"
             style="fill:#a30044;fill-opacity:1;fill-rule:nonzero;stroke:none"
             d="m 0,0 c 0,2.104 -1.706,3.811 -3.81,3.811 -2.103,0 -3.809,-1.707 -3.809,-3.811 0,-2.104 1.707,-3.81 3.809,-3.81 C -1.706,-3.81 0,-2.103 0,0" />
        </g>
      </g>
      <g
         style="fill:#a30044;fill-opacity:1"
         transform="matrix(0.35277777,0,0,0.35277777,150.77711,237.3641)"
         clip-path="url(#clipPath1746)"
         id="g1742">
        <g
           style="fill:#a30044;fill-opacity:1"
           transform="translate(3.8096,-0.001)"
           id="g1748">
          <path
             inkscape:connector-curvature="0"
             id="path1750"
             style="fill:#a30044;fill-opacity:1;fill-rule:nonzero;stroke:none"
             d="m 0,0 c 0,2.104 -1.706,3.811 -3.81,3.811 -2.103,0 -3.809,-1.707 -3.809,-3.811 0,-2.104 1.707,-3.81 3.809,-3.81 C -1.706,-3.81 0,-2.103 0,0" />
        </g>
      </g>
      <g
         style="fill:#a30044;fill-opacity:1"
         transform="matrix(0.35277777,0,0,0.35277777,141.27071,220.38772)"
         clip-path="url(#clipPath1830)"
         id="g1826">
        <g
           style="fill:#a30044;fill-opacity:1"
           transform="translate(3.8096,-0.001)"
           id="g1832">
          <path
             inkscape:connector-curvature="0"
             id="path1834"
             style="fill:#a30044;fill-opacity:1;fill-rule:nonzero;stroke:none"
             d="m 0,0 c 0,2.104 -1.706,3.811 -3.81,3.811 -2.103,0 -3.809,-1.707 -3.809,-3.811 0,-2.104 1.707,-3.81 3.809,-3.81 C -1.706,-3.81 0,-2.103 0,0" />
        </g>
      </g>
      <g
         style="fill:#a30044;fill-opacity:1"
         transform="matrix(0.35277777,0,0,0.35277777,131.75178,219.11096)"
         clip-path="url(#clipPath1858)"
         id="g1854">
        <g
           style="fill:#a30044;fill-opacity:1"
           transform="translate(3.8096,-0.001)"
           id="g1860">
          <path
             inkscape:connector-curvature="0"
             id="path1862"
             style="fill:#a30044;fill-opacity:1;fill-rule:nonzero;stroke:none"
             d="m 0,0 c 0,2.104 -1.706,3.811 -3.81,3.811 -2.103,0 -3.809,-1.707 -3.809,-3.811 0,-2.104 1.707,-3.81 3.809,-3.81 C -1.706,-3.81 0,-2.103 0,0" />
        </g>
      </g>
      <g
         style="fill:#a30044;fill-opacity:1"
         transform="matrix(0.35277777,0,0,0.35277777,133.30965,213.34196)"
         clip-path="url(#clipPath1844)"
         id="g1840">
        <g
           style="fill:#a30044;fill-opacity:1"
           transform="translate(3.8096,-0.001)"
           id="g1846">
          <path
             inkscape:connector-curvature="0"
             id="path1848"
             style="fill:#a30044;fill-opacity:1;fill-rule:nonzero;stroke:none"
             d="m 0,0 c 0,2.104 -1.706,3.811 -3.81,3.811 -2.103,0 -3.809,-1.707 -3.809,-3.811 0,-2.104 1.707,-3.81 3.809,-3.81 C -1.706,-3.81 0,-2.103 0,0" />
        </g>
      </g>
      <g
         style="fill:#a30044;fill-opacity:1"
         transform="matrix(0.35277777,0,0,0.35277777,125.49811,215.45576)"
         clip-path="url(#clipPath1732)"
         id="g1728">
        <g
           style="fill:#a30044;fill-opacity:1"
           transform="translate(3.8096,-0.001)"
           id="g1734">
          <path
             inkscape:connector-curvature="0"
             id="path1736"
             style="fill:#a30044;fill-opacity:1;fill-rule:nonzero;stroke:none"
             d="m 0,0 c 0,2.104 -1.706,3.811 -3.81,3.811 -2.103,0 -3.809,-1.707 -3.809,-3.811 0,-2.104 1.707,-3.81 3.809,-3.81 C -1.706,-3.81 0,-2.103 0,0" />
        </g>
      </g>
      <g
         style="fill:#a30044;fill-opacity:1"
         transform="matrix(0.35277777,0,0,0.35277777,119.08964,208.86182)"
         clip-path="url(#clipPath1718)"
         id="g1714">
        <g
           style="fill:#a30044;fill-opacity:1"
           transform="translate(3.8096,-0.001)"
           id="g1720">
          <path
             inkscape:connector-curvature="0"
             id="path1722"
             style="fill:#a30044;fill-opacity:1;fill-rule:nonzero;stroke:none"
             d="m 0,0 c 0,2.104 -1.706,3.811 -3.81,3.811 -2.103,0 -3.809,-1.707 -3.809,-3.811 0,-2.104 1.707,-3.81 3.809,-3.81 C -1.706,-3.81 0,-2.103 0,0" />
        </g>
      </g>
      <g
         style="fill:#a30044;fill-opacity:1"
         transform="matrix(0.35277777,0,0,0.35277777,109.23962,207.74867)"
         clip-path="url(#clipPath1676)"
         id="g1672">
        <g
           style="fill:#a30044;fill-opacity:1"
           transform="translate(3.8096,-0.001)"
           id="g1678">
          <path
             inkscape:connector-curvature="0"
             id="path1680"
             style="fill:#a30044;fill-opacity:1;fill-rule:nonzero;stroke:none"
             d="m 0,0 c 0,2.104 -1.706,3.811 -3.81,3.811 -2.103,0 -3.809,-1.707 -3.809,-3.811 0,-2.104 1.707,-3.81 3.809,-3.81 C -1.706,-3.81 0,-2.103 0,0" />
        </g>
      </g>
      <g
         style="fill:#a30044;fill-opacity:1"
         transform="matrix(0.35277777,0,0,0.35277777,98.456828,209.07832)"
         clip-path="url(#clipPath1942)"
         id="g1938">
        <g
           style="fill:#a30044;fill-opacity:1"
           transform="translate(3.8096,-0.001)"
           id="g1944">
          <path
             inkscape:connector-curvature="0"
             id="path1946"
             style="fill:#a30044;fill-opacity:1;fill-rule:nonzero;stroke:none"
             d="m 0,0 c 0,2.104 -1.706,3.811 -3.81,3.811 -2.103,0 -3.809,-1.707 -3.809,-3.811 0,-2.104 1.707,-3.81 3.809,-3.81 C -1.706,-3.81 0,-2.103 0,0" />
        </g>
      </g>
    </g>
    <text
       xml:space="preserve"
       style="font-style:normal;font-weight:normal;font-size:34.18673706px;line-height:1.25;font-family:sans-serif;letter-spacing:0px;word-spacing:0px;fill:#a30044;fill-opacity:1;stroke:none;stroke-width:0.85466826"
       x="140.22768"
       y="61.317528"
       id="text5897"><tspan
         sodipodi:role="line"
         id="tspan5895"
         x="140.22768"
         y="61.317528"
         style="font-style:normal;font-variant:normal;font-weight:bold;font-stretch:normal;font-family:Montserrat;-inkscape-font-specification:Montserrat;fill:#a30044;fill-opacity:1;stroke-width:0.85466826">RUB </tspan></text>
    <g
       id="g3523"
       transform="matrix(0.92151438,0,0,0.92151438,60.777307,-39.683343)">
      <text
         id="text6009"
         y="90.685455"
         x="175.12608"
         style="font-style:normal;font-weight:normal;font-size:7.04504871px;line-height:1.25;font-family:sans-serif;letter-spacing:0px;word-spacing:0px;fill:#fd006a;fill-opacity:1;stroke:none;stroke-width:0.17612621"
         xml:space="preserve"><tspan
           style="font-style:normal;font-variant:normal;font-weight:bold;font-stretch:normal;line-height:0;font-family:Montserrat;-inkscape-font-specification:Montserrat;letter-spacing:0px;fill:#fd006a;fill-opacity:1;stroke-width:0.17612621"
           y="90.685455"
           x="175.12608"
           sodipodi:role="line"
           id="tspan6007"><tspan
             style="font-weight:bold;font-size:9.96333599px;line-height:0;letter-spacing:0px;fill:#fd006a;fill-opacity:1;stroke-width:0.17612621"
             id="tspan5993"
             dy="-0.0083745224">R</tspan><tspan
             id="tspan6065"
             style="font-size:7.09042883px;stroke-width:0.17612621">OSCOFF</tspan></tspan></text>
      <text
         id="text6033"
         y="94.433731"
         x="175.01453"
         style="font-style:normal;font-weight:normal;font-size:7.04504871px;line-height:1.25;font-family:sans-serif;letter-spacing:0px;word-spacing:0px;fill:#fd006a;fill-opacity:1;stroke:none;stroke-width:0.17612621"
         xml:space="preserve"><tspan
           id="tspan6044"
           style="font-style:normal;font-variant:normal;font-weight:bold;font-stretch:normal;line-height:0;font-family:Montserrat;-inkscape-font-specification:Montserrat;letter-spacing:0px;fill:#fd006a;fill-opacity:1;stroke-width:0.17612621"
           y="100.66695"
           x="175.01453"
           sodipodi:role="line" /><tspan
           style="font-style:normal;font-variant:normal;font-weight:bold;font-stretch:normal;line-height:0;font-family:Montserrat;-inkscape-font-specification:Montserrat;letter-spacing:0px;fill:#fd006a;fill-opacity:1;stroke-width:0.17612621"
           y="109.47326"
           x="175.01453"
           sodipodi:role="line"
           id="tspan6031"><tspan
   id="tspan6070"
   style="font-size:9.74934006px;stroke-width:0.17612621">B</tspan>IO*</tspan></text>
      <text
         xml:space="preserve"
         style="font-style:normal;font-weight:normal;font-size:7.04504871px;line-height:1.25;font-family:sans-serif;letter-spacing:0px;word-spacing:0px;fill:#fd006a;fill-opacity:1;stroke:none;stroke-width:0.17612621"
         x="175.12608"
         y="100.1315"
         id="text6063"><tspan
           id="tspan6061"
           sodipodi:role="line"
           x="175.12608"
           y="100.1315"
           style="font-style:normal;font-variant:normal;font-weight:bold;font-stretch:normal;font-size:9.96333599px;line-height:0;font-family:Montserrat;-inkscape-font-specification:Montserrat;letter-spacing:0px;fill:#fd006a;fill-opacity:1;stroke-width:0.17612621">U<tspan
   id="tspan6067"
   style="font-size:7.09042883px;stroke-width:0.17612621">NSEMINARS IN</tspan></tspan></text>
    </g>
  </g>
</svg>
